<svg xmlns="http://www.w3.org/2000/svg" viewBox="0 0 762 762" fill="none" shape-rendering="auto" aria-hidden="true" width="160" height="160"><metadata xmlns:rdf="http://www.w3.org/1999/02/22-rdf-syntax-ns#" xmlns:xsi="http://www.w3.org/2001/XMLSchema-instance" xmlns:dc="http://purl.org/dc/elements/1.1/" xmlns:dcterms="http://purl.org/dc/terms/"><rdf:RDF><rdf:Description><dc:title>Adventurer</dc:title><dc:creator>Lisa Wischofsky</dc:creator><dc:source xsi:type="dcterms:URI">https://www.figma.com/community/file/1184595184137881796</dc:source><dcterms:license xsi:type="dcterms:URI">https://creativecommons.org/licenses/by/4.0/</dcterms:license><dc:rights>Remix of “Adventurer” (https://www.figma.com/community/file/1184595184137881796) by “Lisa Wischofsky”, licensed under “CC BY 4.0” (https://creativecommons.org/licenses/by/4.0/)</dc:rights></rdf:Description></rdf:RDF></metadata><defs><g id="head-default-eb6f9e76"><path d="M252.8 2a225 225 0 0 1 104.8 42.3c6.2 4.9 12.5 9.4 18 15a225 225 0 0 1 71.8 149 58.5 58.5 0 0 1 50.9 42.2 71 71 0 0 1-27.7 76.5 64 64 0 0 1-37.8 11.7c-5.1 0-10-1.6-15.1-1.8q-2.7 3.5-4.8 7.3a223 223 0 0 1-167.1 102.7c-11 .7-21.9 2-33 .7A223.7 223.7 0 0 1 34 105.3 223 223 0 0 1 208.8.6a216 216 0 0 1 44 1.3" fill="black"/><path fill-rule="evenodd" clip-rule="evenodd" d="M355.6 50.3A216 216 0 0 0 219.8 6.2a197 197 0 0 0-39 4A218 218 0 0 0 67.2 375.8 218.5 218.5 0 0 0 327.6 416c35-18.8 64.3-47.3 84.4-81.5l-3-1.6q-4.4-2-8-5c-2.2-2-.3-5.8 2.7-4.7q2.3 1.1 4.4 2.4 2.2 1.6 4.7 2.6a55 55 0 0 0 54.9-6.2 64.5 64.5 0 0 0 25-69.8 53 53 0 0 0-24-31c-13.4-8-30-9-44.7-3.7l-2.3 1c-1.6.7-3.4 1.4-5 1.2-2.5-.2-2.8-4.2-.6-5.2 8-4 16.5-5.6 25.4-6.4A217 217 0 0 0 373 65l-3.6-3.3c-4.3-4-8.6-8.1-13.8-11.3m107.6 196.2c2-1.2 1.3-5.1-1.4-5-2 0-4.2.8-6.2 1.6l-1.4.5a95 95 0 0 0-25.5 12.3c-2.2 2-2.2 4.4.1 6.2l5.2 2.8a36 36 0 0 1 13 9.3c-.2 1.8-2 3.3-3.4 4.4l-.2.2c-3.9 3-8.8 5-13.6 7l-7.2 3.1c-1.6.8-2.5 2.2-1.5 3.9 1 2 3.2 1.1 5 .5l.6-.2 5.4-2.3c5.4-2.3 11-4.5 15.4-8 2.7-2.1 5.1-5.1 5.4-8.7-.5-3.4-2.7-5.7-5.3-7.8-3.5-2.8-7.7-5-11.6-7.2l-1.1-.6q8-4.5 16.7-7.7l4.8-1.7a52 52 0 0 0 6.8-2.6" fill="#ecad80"/></g><g id="eyes-variant13-eb6f9e76"><path d="M239.3.9a65 65 0 0 1 63.5 43.4c2.1 5.6 2.6 11.1 3.6 17-1.3 1.4-1.6 3.3-4 3-7-.4-14-2-21-2.3-8.8 0-17.4-.3-26.1 1-9.9 1.6-19.6 2.6-29.1 5.7A175 175 0 0 0 193.7 81c-3.3 1.7-6.5 3.8-9.9 5.3-2 .7-4.4.3-5.3-2a66 66 0 0 1 17.3-65.1A65 65 0 0 1 239.3.9" fill="black"/><path d="M241.3 6.6a59 59 0 0 1 59 52.5q-22.4-4.4-45-2.5-9 1.2-17.9 2.9c-1-3.3-1.7-6.4-3.6-9.3a26.1 26.1 0 0 0-46.2 3.8 27 27 0 0 0 1.2 22.6l-5.8 3A60 60 0 0 1 203.5 20a59 59 0 0 1 37.8-13.4" fill="white"/><path d="M95.8 29.4A55 55 0 0 1 125 90.6l-2.9 1.6q-14.6-4.2-29.9-5.5a348 348 0 0 0-54 0c-7 .2-13.5 2-20.4 1.6q-1.6-3.5-1.7-7.5a55 55 0 0 1 79.6-51.5" fill="black"/><path d="M81.5 30.4a49.6 49.6 0 0 1 38.6 55.3 83 83 0 0 0-12.3-3q-18.7-2.8-37.6-2.4c-.1-3.8 0-7.4-1.5-11a23.1 23.1 0 0 0-42.7-.8c-2.2 5-1.8 9.7-2 14.9-1.7-1.3-2-1.4-2-3.5a49.4 49.4 0 0 1 59.5-49.4" fill="white"/></g><g id="eyebrows-variant11-eb6f9e76"><path d="M215.4 2.4c17 2 34 7.4 48.6 16.5a57 57 0 0 1 18.2 16.9c1 1.2 1.3 3.5-.2 4.3-1.2 1.2-2.8.5-4.1 0a143 143 0 0 0-54-15c-13.5-.9-28.2-1-41.1 3.8-3 1-5.5 3-8.5 3.8-1.4.3-2.4-1-2.9-2.2a18 18 0 0 1 .2-14.8A23 23 0 0 1 185 5a73 73 0 0 1 30.4-2.6m-117 54.2C106.6 59 113 67.4 111.9 76q-2.7 1-5.5.7a108 108 0 0 0-42.9 5.9c-14 4.7-28.5 11.6-39.4 21.8-1.3 1.3-4.2 3-5.5.7-1.7-2.3 0-4 1.4-6a128 128 0 0 1 48.9-39c8.9-3.6 20-6.5 29.5-3.5" fill="black"/></g><g id="mouth-variant15-eb6f9e76"><path d="M76.5 0c9.4-.6 18.4 5.2 25.2 11.2a121 121 0 0 1 23.5 31.5 211 211 0 0 1 23.6 76.7c.4 4.4 1.5 8.7-2.5 11.8a80 80 0 0 1-23.8 6 144 144 0 0 1-48-4.8c-2.4-.7-4.5-.9-5.4-3.6A210 210 0 0 1 51 63a121 121 0 0 1 1.8-37 44 44 0 0 1 8.7-18.4c3.8-4.4 9.2-7.6 15-7.6" fill="black"/><path d="M81 6a48 48 0 0 1 23.3 16.3 74 74 0 0 1-45.8 5.8c1.2-6.2 3.7-13 8.2-17.5 3.6-3.8 9-6 14.3-4.6" fill="white"/><path d="M108.4 27.3A179 179 0 0 1 135.8 84c-6.3 1.3-12 4-17.5 7a94 94 0 0 0-30 27c-2.3 3.6-4.7 6.5-4.6 11q-4.5-1.2-9-2c-8.4-18-14-37.2-16.9-56.7a124 124 0 0 1-.3-37c5.4 1 10.5 2.3 16 2q7.5-.6 15-2c6.9-1.2 13.3-3.9 19.8-6.1" fill="#8F2E45"/><path d="M134 90c1.5-.6 2.4.2 3.8.7 2.7 11.7 5 23.5 5.6 35.5a90 90 0 0 1-24.7 5.6c-10.4 1-20.2-.7-30.5-1.8a75 75 0 0 1 17.8-23 85 85 0 0 1 28-17" fill="#EA869E"/></g><g id="hair-short18-eb6f9e76"><path d="M438.6 95.7c5.7.5 11.4 3.3 14.7 8a60 60 0 0 1 8.2 20.8q4 18.9 6.9 38c9.6-16.4 15.6-33 29.1-47.2 5.2-5.4 12.9-7.3 20.1-8 8 .2 16.7 3.4 24.5 5.5 5.6 1.7 11.6 3.3 16.7 6.4 4 2.4 6.5 6.5 7 11.1 1.2 15.4-3.9 28-8.7 42.1a178 178 0 0 1 45-18.7c6.4-1.3 13.1-.1 18.4 3.9a64 64 0 0 1 15.2 15.7c2.2 3.4 3.8 7 3.4 11-.5 8.2-4.6 16.3-7.9 23.7q-4 9-9.7 17.1c6.8-1 13.4-2.8 20-4 6.3-1.2 13.4-2.9 19.7-1.2 5.8 1.6 10 7 12.8 12.1 3.6 7.6 6 15.9 8 24 .8 3.6 1.2 7-.5 10.4-2.6 5.7-7.9 8.8-13.2 11.8a144 144 0 0 0-12.9 8c4.6.7 10.4 1.4 14.1 4.2 4 3.4 4 9.2 4 14 0 5.5-1.2 10.7-5.6 14.4a42 42 0 0 1-20.6 7c4.2 8.7 7 18.1 9.2 27.5q5.2 23.8 5.2 48.1c-.6 7.2-.4 14.9-2.5 21.8-2.6 1.6-6.6.1-9.6.7-7 1-14.5 2.6-21 5.5-3.5 1.5-5.4 4.3-8 7-4 4.9-8.6 9.5-12.7 14.3q-3 3.6-6.3 6.8c-2 2-6.2-.4-6-3-.2-10 .3-19.9-.7-29.8-1.9-19.6-6.2-40-14.8-57.8a62 62 0 0 0-20.5-25.5c-4-2.6-8.3-3.5-13-4.1a3 3 0 0 1-2.5-4c1.3-3.5 3.5-6.7 5.6-9.8q9.6-14.3 21.8-26.5c-23-7.3-46.4-10.8-70.4-12.8a625 625 0 0 0-208.2 19.5 282 282 0 0 0-45 16.9q-3 1.6-5.7 3.7-.9.8-2.4 0c-1.5-1.2-1-3.8-.6-5.4q2.5-10.2 6.4-20c-10.7-4.1-21.2-8.7-32-12.5a42 42 0 0 1-17.2-9.9 24 24 0 0 1-5.6-13.1c-1-7-1.5-15 .8-21.8a18 18 0 0 1 12-11.2c8-2.4 16-2.6 24.2-2.1-4.4-5.6-11-11.7-12.2-18.9-.8-6 3.3-12.5 6.8-17.2a73 73 0 0 1 15-16c4.6-3 10-2.4 15-.6 15.7 5.7 31 13.6 44.4 23.8q-8.7-16.2-14.9-33.5c-1.7-4.8-2.8-10.6 0-15.2a74 74 0 0 1 27.3-25.7c4.6-2.6 9-4.8 14.5-3.9 4.3.9 8.3 3.8 12 6.3 12.9 9.6 24 21.8 34.3 34.2.9-12.4-.3-24 2.2-36.3 1.4-6.6 4.7-13 10-17.3 4.4-3.8 10.2-5.5 15.6-7.2s11-2.4 16.8-3.3c8-1.2 15.8-2.4 24-1.8" fill="black"/><path d="M620.9 443.1c.7 2 .5 3-.8 4.8-4 5.2-8.6 10-12.8 15.2-2 2.5-4 5.4-6.4 7.7-1.1 1.1-3.7 1-4.3-.6-1-2.1.5-3.5 1.7-5q7-8.6 14.2-16.8 2.3-2.9 4.8-5.3c1.2-1.1 2.3-.5 3.6 0" fill="black"/><path d="M436.6 101.5A15 15 0 0 1 449 108c3.8 5.9 5.6 13.6 7.2 20.4q4.3 20.4 7 41c0 2.5 1.7 3.3 3.4 4.6 4-2.3 5-6.3 7.4-10.1 9-15.3 15.1-30.4 27.3-43.8 3.8-4.2 8.8-5.7 14.3-6.5 6.4-.7 13.4 1.7 19.5 3.4 6.8 2.1 14.4 3.7 20.6 7.3 3.6 2 4.4 6.3 4.5 10q-.7 13.7-5.4 26.4c-1.6 4.8-3.8 9.7-4.6 14.8-.1 1.9 1 4.9 3.4 4.7 1.9-.1 3.7-1.6 5.4-2.4 11-6.6 23.2-11.6 35.4-15.7 5.3-1.6 10.5-3.6 16.2-2.5 3.8.7 6.6 3 9.5 5.3a57 57 0 0 1 11.2 12.8c1.2 2 2.3 4.3 2 6.7-1 8-5.3 15.9-8.6 23.2q-3.8 7.9-8.8 15.2c-1.2 2-3 4.2-2.6 6.7q1.3 2.6 4.2 2c11.7-2 23.4-4.7 35.1-6.4 3.9-.6 8.4.3 11.2 3.1 5.2 4.8 7.5 12.7 9.7 19.2 1.3 4.9 3.7 10.8 2.8 15.8-1.6 4.7-7 7.5-11 9.8-5.5 2.8-10.3 6.4-15.5 9.6q-2.2 1.6-3.7 3.7c1.1 1.5 1.6 3.4 3.6 4 5.7 1.9 11.6 1.7 17 4.8q1.9 7.5.2 14.9c-.8 2.9-3.1 4.7-5.8 6a45 45 0 0 1-21.6 4l-1 2.6c2.7 4.8 5.4 9.4 7.2 14.7 5.8 16.3 8.4 33.8 9.7 51 .3 10 .5 20-1.1 29.8a92 92 0 0 0-28.5 5.8c-2 .8-3.7 3-5.2 4.5q-9.6 10.2-18.9 20.6c0-7.2.2-14.4-.7-21.6a189 189 0 0 0-10-50.3 103 103 0 0 0-15.7-29.4 41 41 0 0 0-24.3-16 159 159 0 0 1 28.3-33.6c1.8-2 .6-4.7-2-5.3-22-7.8-45.5-11.6-68.7-14a636 636 0 0 0-106-.2 569 569 0 0 0-120.8 22.2 260 260 0 0 0-35.9 14q2-6.4 4.6-12.6c.6-1.9 1.7-3.6 1.1-5.6-1.5-1.9-4.3-2.9-6.5-3.8-9.2-3.7-18.3-7.9-27.7-11.3-5.1-2-11-4-15.2-7.7-3.7-3-5-7.8-5.7-12.3a44 44 0 0 1 .7-17.6q2-5.5 7.3-7.5c8-2.7 15.8-2.6 24-2 2.6 0 5 .7 7.3-.9q1.2-2.1-.1-4.1c-4-6-10.1-11.3-13.5-17.8-2.1-5.2.8-9.8 3.7-14 4.3-5.6 9-12 14.7-16.2 2.9-2.1 6.2-1.3 9.3-.3a170 170 0 0 1 36.7 18.3c4.4 2.9 8.4 6.5 13 9 2.4 1.1 5.3 1 6-2-.8-4-3-7.7-4.7-11.3q-7.7-14.8-13.1-30.7c-1.1-4-2.9-7.3-.4-11.1a70 70 0 0 1 25.6-23.5c4.2-2.3 8.1-4.3 12.7-1.6 11.8 6.7 22 17.2 31 27.1q6 6.6 11.4 13.7c1.3 2.6 6.8 2.6 7.4-.6.7-13.8-.3-28.3 2.6-41.8a23 23 0 0 1 12-16.6 78 78 0 0 1 23.3-6.3c7.7-1.2 15.3-2.4 23.2-2.2" fill="#0e0e0e"/></g><clipPath id="clip-eb6f9e76"><rect width="762" height="762" rx="0" ry="0"/></clipPath></defs><g clip-path="url(#clip-eb6f9e76)"><rect width="762" height="762" fill="#dbeafe"/><use transform="translate(143.2 162.9)" href="#head-default-eb6f9e76"/><use transform="translate(154.7 340.2)" href="#eyes-variant13-eb6f9e76"/><use transform="translate(154.6 268.5)" href="#eyebrows-variant11-eb6f9e76"/><use transform="translate(232.5 456.6)" href="#mouth-variant15-eb6f9e76"/><use transform="translate(-65.6 -47.4)" href="#hair-short18-eb6f9e76"/></g></svg>