<svg xmlns="http://www.w3.org/2000/svg" viewBox="0 0 980 980" fill="none" shape-rendering="auto" aria-hidden="true" width="160" height="160"><metadata xmlns:rdf="http://www.w3.org/1999/02/22-rdf-syntax-ns#" xmlns:xsi="http://www.w3.org/2001/XMLSchema-instance" xmlns:dc="http://purl.org/dc/elements/1.1/" xmlns:dcterms="http://purl.org/dc/terms/"><rdf:RDF><rdf:Description><dc:title>Lorelei</dc:title><dc:creator>Lisa Wischofsky</dc:creator><dc:source xsi:type="dcterms:URI">https://www.figma.com/community/file/1198749693280469639</dc:source><dcterms:license xsi:type="dcterms:URI">https://creativecommons.org/publicdomain/zero/1.0/</dcterms:license><dc:rights>Remix of “Lorelei” (https://www.figma.com/community/file/1198749693280469639) by “Lisa Wischofsky”, licensed under “CC0 1.0” (https://creativecommons.org/publicdomain/zero/1.0/)</dc:rights></rdf:Description></rdf:RDF></metadata><defs><g id="eyes-variant03-2ac3eef5"><path d="m326 32 10 2q2 2 0 3-4 4-9 4l-23 4-4 20q-3 8-11 9-8-1-11-7-6-8-7-18-6 1-11-1c-1-3 3-4 4-5l40-9zm-185 7q8-1 16 3l3 3-21 4q-2 13-8 25-4 5-9 5-9-2-14-9-6-8-8-18l-55 2q-5 0-6-3 6-4 11-4l33-4q29-4 58-4" fill="#000000"/><path d="m295 47-7 16q-5-6-8-15zm-167 3-6 18-4-2-11-15 18-1z" fill="white"/></g><g id="eyebrows-variant03-2ac3eef5"><path d="M119 47q15-1 29 3t23 18q5 12-6 20-11 4-23 2-31-6-61-14l-20-4-10-3q-2 0-3-4 2-5 9-7l20-7 18-3zm176 5q12 2 23 7l8 5q4 3 1 7-4 4-9 5-26 8-52 12l-9 1-8-4q-4-4-4-10 0-12 8-20 8-4 16-4 14-2 26 1" fill="#000000"/></g><g id="nose-variant03-2ac3eef5"><path d="M52 101q0 4-4 9-7 9-18 12c-5 1-9-2-13 0H5q-3-3 0-7 5-6 12-7 6-2 10 2l1 7 11-8z" fill="#000000"/></g><g id="mouth-happy06-2ac3eef5"><path d="M128 40q40-2 78 6l8 4q3 1 2 3-6 3-14 2l-5 5q-10 10-22 16-11 4-22 5-24 1-48-3a147 147 0 0 1-68-28l-12-4q-3-2-2-5h8q24 3 49 2zm42 11q-35-2-69 1l-43 1 23 10q20 7 41 8 15 2 32 1 11-1 21-6 9-5 17-13z" fill="#000000"/></g><g id="glasses-variant02-2ac3eef5"><path d="M341 31h31q13 0 26 4 5 3 3 8-5 7-15 8l-1 28q0 23-7 43-8 17-26 24-11 4-24 5l-33-1q-9-1-17-5-10-5-15-17l-6-18q-2-16-1-32-18-4-35-1l-4 6-1 11q-2 18-6 35-6 13-16 22-7 6-15 8-36 13-73 12-26-2-47-12-21-12-32-31l-4-13-1-24V70q-10 2-19-4-5-4-1-10 6-4 14-6 21-8 45-12l19-2 54-2 56 4q12 4 21 10l11 11 24 2q6 2 11 1l3-8 7-8q13-7 28-10z" fill="#000000"/><path d="M359 52c6 1 13 8 13 14q0 9-7 8c-6 0-9-7-12-10q-3-2-4-6 1-7 10-6m-183 6q11 2 20 12 4 6 2 14-5 6-12 3-4-3-6-8l-7-3q-7-1-12-5-3-4 0-7 5-7 15-6" fill="white"/></g><g id="head-variant04-2ac3eef5"><path d="M299 0a231 231 0 0 1 219 204q2 15 0 30 0 5-4 8-4-15-5-29-3-35-16-68A220 220 0 0 0 271 8q-64 6-117 44l-18 13a221 221 0 0 0-78 164q2 34 16 64l17-1q5 3 2 7l-6 1q-24 2-42 18-14 13-17 31-3 24 9 44 14 24 40 34 20 8 43 4 6-1 11 1v3q-7 7-18 7-25 3-48-8a86 86 0 0 1-47-58q-5-29 10-53 12-18 34-26-10-21-12-43-3-27-1-53 3-20 9-38a227 227 0 0 1 99-122c41-28 92-43 142-41" fill="black"/><path d="M338 13a220 220 0 0 1 171 200q1 15 5 29l-2 17v22q-4 8-5 15l-1 23-1 65q0 32-10 61-6 19-19 34-14 18-33 32-17 14-37 24l-22 14-12 8 9-3q-4 19-4 37-1 13 7 22 10 12 25 20 26 16 55 25 11 10 14 25 2 14-5 26-8 15-22 25-20 13-43 22-44 15-92 19-63 5-124-8-26-5-49-17-17-7-28-21-9-9-12-22-2-16 6-30 32-20 49-54 7-17 7-34 2-24 0-47-2-31-8-61 16 18 36 32 26 16 56 26 30 11 63 17 12 4 25 4l8-2q2-1 2-4-9 1-17-2-45-10-87-26-29-10-53-27-26-20-47-47-5-9-12-16v-4q-5-2-11-1-23 4-43-4-26-10-40-34-12-20-9-44 3-18 17-31 18-16 42-18l6-1q3-4-2-7l-17 1q-14-30-16-64 1-21 5-41 7-31 22-59 19-36 51-64l18-13a230 230 0 0 1 184-39" fill="#ffffff"/><path d="M512 281q3 6 2 13l1 29q2 40 0 80c-3 31-14 63-36 86q-38 43-93 63l1 8 1 35q2 8 8 13l26 19 32 20 24 12 4 3-18-4q-29-9-55-25-15-8-25-20-8-9-7-22l4-37-9 3 12-8 22-14q20-11 37-24 19-14 33-32 13-15 19-34 10-29 10-61l1-65 1-23q1-7 5-15M82 343c5 5 4 14 0 19l-3 7 7 6 19 9q-1 6-7 5-10-1-19-6-10-4-12-16 2-8 6-14 2-7-2-12 6-3 11 2m49 93q7 7 12 16 20 27 47 47 24 16 53 27a714 714 0 0 0 104 28q0 3-2 4l-8 2q-13-1-25-4a478 478 0 0 1-119-43q-20-14-36-32 6 30 8 61 2 23 0 47 0 17-7 34-17 34-49 54-6 5-15 8l10-9q20-17 33-40 11-15 15-32 5-29 2-58l-2-59 2-10q-16-18-23-41" fill="black"/><use transform="translate(159 232)" href="#eyes-variant03-2ac3eef5"/><use transform="translate(164 126)" href="#eyebrows-variant03-2ac3eef5"/><use transform="translate(359 274)" href="#nose-variant03-2ac3eef5"/><use transform="translate(223 402)" href="#mouth-happy06-2ac3eef5"/><use transform="translate(152 197)" href="#glasses-variant02-2ac3eef5"/></g><g id="hair-variant25-2ac3eef5"><use transform="translate(131 168)" href="#head-variant04-2ac3eef5"/><path d="m300 206 4 8c-1 7-7 12-8 18q-2 6 1 11 9 13 20 22 4 6 0 11l-12 8-7 9q-9 19-12 40l-1 14q-3 6-9 9-12 7-19 17-9 10-13 23-5 18 1 36 6 1 8 4-8 10-20 14h16q3 0 4 3-7 8-17 12-11 6-24 2l-15-4-7-3q-16-17-24-39a168 168 0 0 1 0-98q14-46 47-81 17-18 40-29t47-7m-33 257-3 5q-10 8-23 9-6 1-10-1 1-7 8-10 14-8 28-3" fill="#000000"/></g><clipPath id="clip-2ac3eef5"><rect width="980" height="980" rx="0" ry="0"/></clipPath></defs><g clip-path="url(#clip-2ac3eef5)"><rect width="980" height="980" fill="#fef3c7"/><use transform="translate(76 3)" href="#hair-variant25-2ac3eef5"/></g></svg>