<svg xmlns="http://www.w3.org/2000/svg" viewBox="0 0 1744 1744" fill="none" shape-rendering="auto" aria-hidden="true" width="128" height="128"><metadata xmlns:rdf="http://www.w3.org/1999/02/22-rdf-syntax-ns#" xmlns:xsi="http://www.w3.org/2001/XMLSchema-instance" xmlns:dc="http://purl.org/dc/elements/1.1/" xmlns:dcterms="http://purl.org/dc/terms/"><rdf:RDF><rdf:Description><dc:title>Notionists</dc:title><dc:creator>Zoish</dc:creator><dc:source xsi:type="dcterms:URI">https://heyzoish.gumroad.com/l/notionists</dc:source><dcterms:license xsi:type="dcterms:URI">https://creativecommons.org/publicdomain/zero/1.0/</dcterms:license><dc:rights>Remix of “Notionists” (https://heyzoish.gumroad.com/l/notionists) by “Zoish”, licensed under “CC0 1.0” (https://creativecommons.org/publicdomain/zero/1.0/)</dc:rights></rdf:Description></rdf:RDF></metadata><defs><g id="head-variant01-852f89a7"><path d="M553 723.7c-99 297-363.7 388.6-503.6 19.8-19.3-50.7 31-69.5 66.2-91.9 24.1-15.3 36.8-28.5 35.3-42.2C144 545 114 365.6 114 365.6l-3-5.8s.7-1.6-2.2 1.2c-3 3-9.9 34.2-37 34.2-24.5 0-49.2-10.9-61-86.3C6.3 281.6 8.7 210 39 197c12.5-5.3 24-7.2 35.2-.8s-13-22 112-126C267.5 2.4 395.8-7.5 447.6 4S551 40.8 574 94.5c27.8 65-25.9 114.3-14 262.5-2.2 53.6.8 171.2-146.6 210.6-28 7.5-19.3 48.4 22.7 58.4 67 21 117 72.3 117 97.9" fill="white"/><path d="M7.6 228.9c5.2-16.1 23.7-44.7 42.2-42C71.7 185 83.8 198 94 213a140 140 0 0 1 22.4 61.5c.5 3.7 1 7.6-1.2 11.3-4.5.6-4.9-3-5-5.6-.5-20.7-9.7-38.7-18.9-56.1-6.6-12.5-16.2-24.6-31.4-27.6-17.2-3.5-33 12-40.8 32.2-14.5 37.6-12 74.6 1.4 111 5.8 15.9 13.1 32.1 27.8 43.2 14.8 11.3 32.7 9.3 43.6-5.7 2.5-3.4 5.6-6.7 7-10.6 2.1-5.7 5.4-11 11.3-10.3 6.8 1 8 8.3 8.7 14C126.2 436 137 501 147 566c2.6 17.1 5.6 41.7 3.6 52.1-.7 3.7 0 7-4.5 7.8-4.9.7-7-2.1-7.7-6.5-2.3-17-3-23.6-4-49.6-1.2-34.3-9.6-68-15.3-102a604 604 0 0 1-10.9-97c-8.5 12.7-14.8 23.3-26.5 27.2a40.5 40.5 0 0 1-46.1-12.6 128 128 0 0 1-28.8-55.8c-8.4-34-9.9-67.1.9-100.6m572.7-71.5c6.5 4.4 5.7 10 3.7 15.2-21.6 55.7-17.6 113.8-15.8 171.6 2.1 66.4-14.5 126.8-58.7 177.5-15.4 17.6-35.8 29.8-56.5 40.3-21.4 11-25.9 20.1-19.2 43.6 1.3 4.7 4.4 9.6-.2 14.4s-9.8 3.1-15.4 1.7a406 406 0 0 1-137-68.3c-6-4.5-11-10.6-15.8-16.5-2.5-3-3-7.8.5-10.4 3.7-2.9 6.4.1 9.8 2.7A146 146 0 0 0 352 561c21 2.1 41.5-.2 62.3-.1 11.5 0 20.6-5.9 29.5-10.8 27.8-15.5 54.3-32.8 72.2-60.7a230 230 0 0 0 31.6-80.9c9.6-48 5.3-96.6 5.5-146.2 4.2-36.9 8.1-72.7 27.3-104.8M60.6 238.6c21 1 34.7 28 35.8 70.3-6 18.8-12.8-1-21 2.7-4 14.5 15.1 20 16.3 34-14-.6-21.1-9.3-25.9-19.8-5.5-12.2-1-22.2 9.7-29.9-6.7-13.4-21.7-18-30-30.5 10-3.5 15.1 2.9 21 6.8 5.9 4 9 11.3 17 15-.8-19.8-11.7-34-23-48.6" fill="black"/></g><g id="clothes-variant17-852f89a7"><path d="M1378 715.7 9 712.4s11.4-97 44.3-189.1c41.2-115.2 107.2-232 125-246.1 20.8-16.8-11.6-18.2 3.4-41.2 33.5-51.1 147-97.5 179.8-114.1C420.2 92 526.3 74 526.3 74l27.2 53.5s63.5 22 138.6 24.5c40.5 1.3 134.4-29.5 134.4-29.5l-11.2-57.8s169.5 34.8 253.3 85.6c48.3 29.3 108.5 75 110 101.2 2.2 39.8 1.7 36.7 24 51.9 53.5 36.2 98.8 122 121.2 191.2 17.6 54.2 54.2 221 54.2 221" fill="white"/><path d="m951.7 715.7-94.5-.3L870 510.3l-43.4-379.4s-110.1 29-147 27c-31.4-1.5-123.7-22-123.7-22s51 280 55.9 374.4c2.6 51.3-8.7 205.4-8.7 205.4l-209.4-1.2L303 516.7S354 383.3 404.5 310c9-13.1-22.8-16-64.1-14-42.2 2-164.2-13.8-162.4-44.5 3-51.3 150.5-113 183.4-129.6C420 92 526.2 74 526.2 74l27.3 53.5S617 149.5 692 152c40.5 1.3 134.4-29.5 134.4-29.5l-11.2-57.8s169.6 34.8 253.4 85.6c48.3 29.3 122 66.1 111.2 120.3-2.3 12-207 47-187.2 89.8 24.6 53 88.8 118.6 79 135-16 27-40.8 67.7-69.5 103.3-20.2 25-50.5 117-50.5 117" fill="black"/><path fill-rule="evenodd" clip-rule="evenodd" d="M328.5 591c20.5 40.7 41 81.4 56 124.7 6.6 0 12 0 17.7-1l-4.3-11a672 672 0 0 0-19.6-47.8q-16.9-35.4-34.2-70.7l-28-57.5c-3.8-8-6-16.9-1.3-25.8q9.9-19.3 18.4-39.2l5.2-11.8c11-24.4 24.5-47.6 38-70.9a985 985 0 0 0 30.6-55c8-16.3 5.6-24.5-12-30a48 48 0 0 0-10.5-2.3q-12.9-1-25.9-1.7c-26.4-1.5-52.9-3-78.6-10.8-8-2.4-16.3-3.7-24.6-5A191 191 0 0 1 227 269c-14.8-4.2-30-8.6-41.4-20.3l1.7-2.4q1.4-2 2.8-3.5c25.5-28.7 59-47 92.3-65.1l20-11a963 963 0 0 1 62.6-31.4l23.7-11.3A394 394 0 0 1 450 99.2q16-4.5 32.2-8l23.3-5.7c20.1-5.3 23.8-4 29 15.7l9.1 34.2A2051 2051 0 0 1 570.3 242q13 61.2 17.2 123.5c1.5 23.6 4.2 47.2 6.8 70.7 3.7 32.2 7.3 64.3 8 96.7.5 20.8-.1 41.6-.8 62.4l-.8 29c-.3 13.5-1.8 26.9-3.3 40.2-2 17-4 34-3.3 51.2 6.7 0 12.2 0 17.8-1.2l.6-16.2q.1-15.2 1.6-29.6c5.7-51 4.8-102 3.7-153q-1.1-50.4-8.4-100.2a606 606 0 0 1-4.6-52.8c-1.3-23-2.6-46.1-7.3-69l-6.7-34.2a906 906 0 0 0-13-61.8l-1-3c-1.2-3-2.5-6 .6-8.9 4-3.8 9.1-2.7 14-1.4A371 371 0 0 0 717 195c31.6-2.4 62.8-5.8 91.8-19.5 8.7-4 15.5-1.5 17.4 9q1.4 8.4 2.4 16.9 1.4 12 3.8 23.4c7.8 34.8 10 70 12 105.2q1.4 24.2 3.5 48.3 1.6 18 2.8 36.3 1.4 21.9 3.6 43.7c6.3 60.7 4.7 121.5 2.7 182.3l-.7 20q-1.2 27.6-1.4 55c5.8 0 10.4 0 15.4-1l.8-5.3c1-6.5 2-12.5 2-18.4l.3-44.7c.1-28 .3-56.2 1.6-84.2q2.5-55.5-3.2-111c-2.7-26.2-4.5-52.4-6.3-78.7q-2.4-36.2-5.7-72.4c-4.5-46-10.5-92-20.5-137.3q-6.7-31-12.6-62.3l-1.2-6.4q-.6-3.7-.4-7.4v-4c-.3-6.4 2.7-8.5 9.1-7.2A642 642 0 0 1 913.4 94c21 6.9 41.7 15 62.3 23q11 4.5 22 8.6a447 447 0 0 1 141 84.8c13 11.7 24.1 25.1 31.8 40.6 4.5 9.3-.3 19.2-9.6 21l-9.2 1.9c-22.7 4.4-45.4 9-67.6 15.7a252 252 0 0 0-92.9 50.8c-7.6 6.6-8.7 14.7-4.5 23.2q6 12.1 13.2 23.6l17.7 27.5a705 705 0 0 1 42 70c3.2 6.5 4 13-.3 18-9.4 10.8-16.8 22.9-24.3 35a360 360 0 0 1-16.9 25.7 486 486 0 0 0-53.6 90.3q-5.2 11.9-9.7 24.2c-4.8 13-9.7 25.8-16.5 37.7 7.5 0 14 0 20.6-1 10.7-33 23.5-64.2 41.5-93 23-37.1 47.5-73.3 72.3-109.3 6.3-9 9.7-18.8 3.8-31-8-16.8-17.5-32.7-27-48.5l-.4-.7a1715 1715 0 0 0-43.7-68c-4.7-7.2-2.2-12 3-16.8a158 158 0 0 1 41.7-26.7A355 355 0 0 1 1153 291c12.8-1.7 22.3.7 32 7.6 34.6 24.3 64.6 51 82.6 90.3l8.7 18.7c12.8 27.6 25.6 55.2 35.5 84a1107 1107 0 0 1 41 147.4c5.8 25.6 11.6 51.2 18.2 76.7 4.9 0 8.6 0 12-1-5.3-21.6-9-43.3-12.8-65-4.7-27-9.4-54-17-80.4l-1.4-5.3c-6.6-23.2-13.2-46.4-21.1-69a882 882 0 0 0-52-121.3c-18.2-34.7-45.7-61.4-77.7-84.9q-2.2-1.5-5-2.8c-6-3.1-12.7-6.5-9.7-16.8 5.2-17.6 1.8-33.7-13.7-46.3a87 87 0 0 1-9.6-9.7l-3-3.3c-41.4-45.3-95.8-72.5-151.8-97a1083 1083 0 0 0-112.6-40c-23.7-7.3-48-13.2-73-15q-18.9-1.3-16.5 16.8l1 9c.8 6.7 1.5 13.5 3.1 20 2.8 11.2-3.2 17.2-12 21.2-22 9.8-45.4 17.3-69.4 18.8-52.8 3.3-105.4.7-156-16.9a27 27 0 0 1-16.9-14.7q-3.7-7.6-6.8-15.3a224 224 0 0 0-11-23c-5.4-9.6-11.8-11.8-21.6-8.6q-9.6 3-19.3 5c-35.6 7.8-70.9 16.5-103.7 32.4-46 22.4-91.7 45.1-136 70.3-30.3 17.2-60 34.8-82.7 61.3-6.2 7.3-7.5 14.5-2.5 22.2 4.2 6.5 3.9 11.5-2 17-9.5 8.6-16.2 19.4-22.8 30q-2.6 4.3-5.4 8.5-31.5 48-56 99.5a873 873 0 0 0-32.4 79.3l-1 2.8c-7.9 22-15.7 43.9-21.3 66.5l-5.6 21.5a551 551 0 0 0-8.8 35.3q-9.8 49.5-17 98.9c6.7 0 12.1 0 18-1L32.2 632c11-63 32.6-123 57-182a838 838 0 0 1 91-160.9c4-5.6 9-7.2 15.7-7.8 16.4-1.5 31.6 2.9 46.8 7.2q11.7 3.6 23.5 6l15.7 2.8c27 5 54 10 81.8 11.4q4.3.2 8.7.2c8.1 0 16.5 0 25.3 3l-8.4 13.6-23.8 38.6a730 730 0 0 0-50 95.6 949 949 0 0 1-18.2 39.1c-3.8 7.6-4.9 14.6-1.7 22l1.3 3c6 14 11.9 27.8 18.6 41.4zm476.8-451.8c4.8-2.7 10.3-5.5 11.2 3.6 1.8 10.6-5.4 14.2-11.5 17.3l-1.8 1c-17.5 9.2-37 14-56.8 16.2a437 437 0 0 1-145.1-5.8q-14.4-3.3-27.4-10-8.6-4-6.8-12.5c1.5-6 5.5-5 9.5-4l2.4.6 19.4 3.8c16.5 3.3 33.1 6.6 49.9 9a293 293 0 0 0 103.8-2.9l1-.1c18-3.8 35.8-7.5 52.2-16.2" fill="black"/><path d="M227 715.7q4.7-52.4 11.4-104.7c3.6-29.7 4-60 17.4-88q1.5-3.6 3.8-6.7c2.3-3.1 5-6.8 9.7-5.2 5.3 1.7 3.6 6.4 2.7 9.9-8 32.1-13.3 64.8-17.7 97.5-4.1 31.5-6.2 63.3-9.4 96-5.8 1.2-11.2 1.2-18 1.2m951 0c-9.8-36.3-12.8-73.7-23.3-109.7-6.2-21-9.8-42.8-17.9-63.4-1.6-4.2-.5-9 4-11.2 4.4-2.3 7.4 1.3 9.9 4.3a55 55 0 0 1 9.9 22.1q17.3 65.2 27.6 131.7c1.2 8 1.2 16 1.9 25.2-3.5 1-7.3 1-12.1 1" fill="black"/></g><g id="hair-variant34-852f89a7"><path d="M798.9 335c-49.4 15.5-99.5 21.5-149.5 28.4-31.9 4.4-63.9 1.6-95.8 2.6-22.5.7-43.7-6.4-64.9-12.4-7.7-2.2-11.3-.7-15.1 6.3q-22.8 42.1-35.3 88.3c-5.6 20-14.4 39-21.9 58.4-5.1 13.4-10.7 26.7-15.5 40.3-2.7 7.5-7.2 11.5-15.1 10.7-8.2-.9-12.2-7-12-14.2.9-18.8-5.6-36-10.8-53.4-5.7-19.3-32.5-37.3-52.3-34.5-14.2 2-19 15.8-27.8 24.5-3.8 3.8-4.5 10-10.2 13.3-9.5-8.1-9.5-19.8-10.6-30.3-3.8-35.5.6-69.2 29.8-94.3a64 64 0 0 1 25.4-14c9.2-2.2 9.8-6.7 10.2-14.2 2.8-54.8 21-103.7 64-139 36.9-30.2 81.3-36.3 127.5-24.3 8.5 2.2 17.6 2.1 25.8 6.6 5.2 3 8.4-2.7 11.7-5.6 26-22.8 54.5-41.8 86-56 19.8-9 40.4-10.4 61.3-8.5a166 166 0 0 1 80.4 29c15.9 11 28.5 25.4 38.8 41.6 4 6.2 8.2 10.2 15.6 11.6a82 82 0 0 1 60.6 45.3c9.2 18.2 9.3 37.7 7.4 57.3a78 78 0 0 1-4.2 21.2c-5.3 13.2-9.7 24.4-3.5 40.4 7.3 19-2.3 38.9-13.6 55-14.4 20.8-35.2 35.7-53.5 53-1.1 1-2.9 1.4-5.7 2.8-8.5-18.3-14-36.8-14.7-56.3-.8-24.2-5.8-48.2-2.8-72.5.8-6.7-1.7-9.8-9.7-7" fill="black"/></g><g id="mouth-variant07-852f89a7"><path d="M184 98.8a43 43 0 0 0 26.7-6.4c8.8-5.7 9.9-16.8 1.5-23.1-9.4-7.3-20-7-30-1.9-20.1 10.2-40 18.9-61.2 2.4-5-3.8-11.1-6.1-16.5-9.5a31 31 0 0 0-27-2.5C66.6 61.2 58 74.4 61.1 83.6c4 11.5 14.5 10.5 23.6 9.3a61 61 0 0 1 30 2.7c22 7.7 44.3 7.4 69.1 3.2" fill="white"/><path fill-rule="evenodd" clip-rule="evenodd" d="m190.4 113.2 16-1.3c22.4-.3 37.1-30 22-49.3-14.2-18.4-37.7-21.3-56.8-5.5-11.4 9.5-26.3 11.5-34.6 2.8a67 67 0 0 0-33-18.1C74.9 34.3 50.6 48.4 47.3 81c-2 19.1 18.8 30 38.6 28.1l4.8-.5c5.3-.7 10.6-1.4 15.5.2 27.7 9 55.7 6.7 84.3 4.3m20.3-20.8a43 43 0 0 1-26.8 6.4c-24.8 4.2-47 4.5-69-3.2-9.7-3.4-20-4.3-30-2.7-9.2 1.2-19.7 2.2-23.7-9.3-3.2-9.2 5.5-22.4 16.2-25.8a31 31 0 0 1 27 2.5L111 64q5.4 2.5 10 6c21.2 16.4 41 7.7 61.2-2.5 10-5 20.6-5.4 30 1.9 8.4 6.3 7.3 17.4-1.5 23" fill="black"/></g><g id="beard-variant04-852f89a7"><path d="M272.7 104.6c-5.5 11.8-15.8 14-26 14.6-8.2.5-12.6-6.2-10.5-13.5a36 36 0 0 1 21.5-25c5.1-1.9 10.4-4.4 15.6-.2 5.7 4.6 4.4 10.6 3.3 16.4-.5 2.4-2.2 4.6-3.9 7.7m70.1 17.7c-14.3-3-21.2-13.2-27.3-23.9-5.8-10 3.2-13.6 9.7-16.8 7.4-3.7 21 5 25.3 16.5 3.6 9.2 6.5 19.2-7.7 24.2" fill="black"/></g><g id="nose-variant13-852f89a7"><path d="M99.8 181.6c-8.7 16.5-33.4 25.7-48.5 18.9-4.3-2-6.2-5.8-7-10a6 6 0 0 1 3.3-6.5c4.6-2 5.8 2.3 8.6 4.8 7 6 13 .7 19-3.4 5.8-4 9.1-8.5 4.3-14.7-10.5-13.1-14.8-29.2-21.8-44-3.1-6.5-5-13.5-3.8-21 .5-3.3 1.9-5.5 5.6-5.6 2.8 0 5 .8 5.9 3.8 7.5 26.3 23.3 48.6 34.6 73.1.5 1 0 2.5-.2 4.6" fill="black"/></g><g id="eyes-variant05-852f89a7"><path d="M20 24c5-12 8.8-29.4 24-22.5C64.7 11 58 32.2 53.7 49 52 55.2 39.2 64.8 35.4 63.2 19.1 56.4 16.2 41.5 20 24m226.8 36.8c-8.6 7.5-17 7.6-22.2-1.5-9-16-8.6-32.8 3.3-47.2 2.5-3 13.8-3.6 16.3-1q20.8 22.7 2.6 49.7" fill="black"/></g><g id="eyebrows-variant09-852f89a7"><path d="M56.5 41.8Q47.3 41 40 41q-8.4-.5-9-8.8c-.5-5.3 3-7 7.5-8.5 8.6-3 17.1-.5 25.2.7 15.4 2.1 31.5-.6 46.4 6.3 5 2.3 8.3 4.7 6.4 10.3-1.8 5.2-6.1 5.2-10.6 4.1-16-3.7-32.4.9-49.4-3.3M250.8 32c17.2.9 33.1-5 49.3-1.2 4 1 9 .7 8.8 7 0 6.2-4.7 7.4-9.5 8-19 2.2-38 4-56.9 6.4-5.7.7-11 .1-12.6-5.6-1.7-5.7 4-7.8 8-10 3.5-2.1 7.8-3.1 12.9-4.7" fill="black"/></g><clipPath id="clip-852f89a7"><rect width="1744" height="1744" rx="0" ry="0"/></clipPath></defs><g clip-path="url(#clip-852f89a7)"><rect width="1744" height="1744" fill="#dcfce7"/><use transform="translate(532 491)" href="#head-variant01-852f89a7"/><use transform="translate(151 1029.3)" href="#clothes-variant17-852f89a7"/><use transform="translate(266 221.9)" href="#hair-variant34-852f89a7"/><use transform="translate(791 872)" href="#mouth-variant07-852f89a7"/><use transform="translate(653 805)" href="#beard-variant04-852f89a7"/><use transform="translate(901 669)" href="#nose-variant13-852f89a7"/><use transform="translate(805.2 732.6)" href="#eyes-variant05-852f89a7"/><use transform="translate(775 657)" href="#eyebrows-variant09-852f89a7"/></g></svg>