<svg xmlns="http://www.w3.org/2000/svg" viewBox="0 0 100 100" fill="none" shape-rendering="auto" aria-hidden="true" width="128" height="128"><metadata xmlns:rdf="http://www.w3.org/1999/02/22-rdf-syntax-ns#" xmlns:xsi="http://www.w3.org/2001/XMLSchema-instance" xmlns:dc="http://purl.org/dc/elements/1.1/" xmlns:dcterms="http://purl.org/dc/terms/"><rdf:RDF><rdf:Description><dc:title>Thumbs</dc:title><dc:creator>DiceBear</dc:creator><dc:source xsi:type="dcterms:URI">https://www.dicebear.com</dc:source><dcterms:license xsi:type="dcterms:URI">https://creativecommons.org/publicdomain/zero/1.0/</dcterms:license><dc:rights>“Thumbs” (https://www.dicebear.com) by “DiceBear”, licensed under “CC0 1.0” (https://creativecommons.org/publicdomain/zero/1.0/)</dc:rights></rdf:Description></rdf:RDF></metadata><defs><g id="eyes-variant06-5152348d"><path d="M16 8c0 3.31-1.34 6-3 6s-3-2.69-3-6 1.34-6 3-6 3 2.69 3 6" fill="#000000"/></g><g id="mouth-variant04-5152348d"><path d="M15 10C6.79 10 3.02 3.88 4.22 3.12 5.42 2.35 6.1 6.6 15 6.49c8.9-.12 9.58-4.23 10.78-3.37S23.21 10 15 10" fill="#000000"/></g><g id="head-default-5152348d"><use transform="translate(-1.34293, 1.11712)" href="#eyes-variant06-5152348d"/><use transform="matrix(-1 0 0 1 44 0) translate(-1.34293, 1.11712)" href="#eyes-variant06-5152348d"/><use transform="translate(7 26) translate(0, 0.47705)" href="#mouth-variant04-5152348d"/></g><g id="body-default-5152348d"><path d="M45 0c24.85 0 45 19.4 45 43.33V130H0V43.33C0 19.4 20.15 0 45 0" fill="#f88c49"/><use transform="translate(24 24) translate(-6.15652, 3.3116) rotate(-17.421, 22, 20)" href="#head-default-5152348d"/></g><clipPath id="clip-5152348d"><rect width="100" height="100" rx="0" ry="0"/></clipPath></defs><g clip-path="url(#clip-5152348d)"><rect width="100" height="100" fill="#ecfccb"/><use transform="translate(5 10) translate(1.91601, 2.08624) rotate(-12.9239, 45, 65)" href="#body-default-5152348d"/></g></svg>