<svg xmlns="http://www.w3.org/2000/svg" width="512" height="512" viewBox="0 0 512 512" fill="none"><rect width="512" height="512" rx="32" fill="white"></rect><path d="M32 0C14.3269 0 0 14.3269 0 32V480C0 497.673 14.3269 512 32 512H305.911C322.044 512 332.33 494.783 324.497 480.678C303.442 442.762 283.328 409.294 270.667 394.824C234.592 353.595 65.3014 392.046 59.9493 257.537C59.5978 248.704 65.5377 240.978 73.9237 238.183L156.513 210.654C161.344 209.043 165.431 205.761 168.186 201.478C175.987 189.349 193.403 163.767 209.333 150.824C224.404 138.579 248.793 123.006 293.31 115.859C302.215 114.43 309.286 107.794 313.623 99.8875C324.038 80.9022 344.69 69.3794 366.454 72.5117C394.88 76.6029 414.438 104.145 410.137 134.028C409.82 136.226 410.555 138.462 412.21 139.941C431.16 156.884 451.193 180.347 471.019 206.846C483.737 223.845 512 215.241 512 194.011V32C512 14.3269 497.673 0 480 0H32Z" fill="#0284C7"></path><circle cx="26.6667" cy="26.6667" r="26.6667" transform="matrix(-1 0 0 1 285.333 178.667)" fill="#0284C7"></circle></svg>