<svg width="183" height="32" viewBox="0 0 183 32" fill="none" xmlns="http://www.w3.org/2000/svg">
<path d="M42.6663 29.167V5.16699H50.183C50.4052 5.16699 50.8163 5.17255 51.4163 5.18366C52.0275 5.19477 52.6108 5.23921 53.1663 5.31699C55.0441 5.55032 56.6219 6.22254 57.8997 7.33366C59.1886 8.44477 60.1608 9.85588 60.8163 11.567C61.4719 13.267 61.7997 15.1337 61.7997 17.167C61.7997 19.2114 61.4719 21.0892 60.8163 22.8003C60.1608 24.5003 59.1886 25.9059 57.8997 27.017C56.6219 28.117 55.0441 28.7837 53.1663 29.017C52.6108 29.0948 52.0275 29.1392 51.4163 29.1503C50.8163 29.1614 50.4052 29.167 50.183 29.167H42.6663ZM46.233 25.8503H50.183C50.5608 25.8503 51.0108 25.8392 51.533 25.817C52.0552 25.7948 52.5163 25.7503 52.9163 25.6837C54.1386 25.4503 55.1275 24.9225 55.883 24.1003C56.6497 23.267 57.2108 22.2448 57.5663 21.0337C57.9219 19.8225 58.0997 18.5337 58.0997 17.167C58.0997 15.7559 57.9163 14.4503 57.5497 13.2503C57.183 12.0392 56.6163 11.0281 55.8497 10.217C55.0941 9.39477 54.1163 8.87254 52.9163 8.65032C52.5163 8.57255 52.0497 8.5281 51.5163 8.51699C50.9941 8.49477 50.5497 8.48366 50.183 8.48366H46.233V25.8503ZM66.014 8.21699V4.83366H69.4973V8.21699H66.014ZM66.014 29.167V11.167H69.4973V29.167H66.014ZM82.2023 29.667C80.3578 29.667 78.7912 29.2559 77.5023 28.4337C76.2134 27.6114 75.2245 26.4837 74.5356 25.0503C73.8578 23.617 73.5134 21.9892 73.5023 20.167C73.5134 18.3114 73.8689 16.6725 74.5689 15.2503C75.2689 13.817 76.2689 12.6948 77.5689 11.8837C78.8689 11.0725 80.4301 10.667 82.2523 10.667C84.2189 10.667 85.8967 11.1559 87.2856 12.1337C88.6856 13.1114 89.6078 14.4503 90.0523 16.1503L86.5856 17.1503C86.2412 16.1392 85.6745 15.3559 84.8856 14.8003C84.1078 14.2337 83.2134 13.9503 82.2023 13.9503C81.0578 13.9503 80.1189 14.2225 79.3856 14.767C78.6523 15.3003 78.1078 16.0337 77.7523 16.967C77.3967 17.9003 77.2134 18.967 77.2023 20.167C77.2134 22.0225 77.6356 23.5225 78.4689 24.667C79.3134 25.8114 80.5578 26.3837 82.2023 26.3837C83.3245 26.3837 84.2301 26.1281 84.9189 25.617C85.6189 25.0948 86.1523 24.3503 86.5189 23.3837L90.0523 24.217C89.4634 25.9725 88.4912 27.3225 87.1356 28.267C85.7801 29.2003 84.1356 29.667 82.2023 29.667ZM100.943 29.667C99.1538 29.667 97.5815 29.2781 96.226 28.5003C94.8815 27.7114 93.8315 26.617 93.076 25.217C92.3315 23.8059 91.9593 22.1725 91.9593 20.317C91.9593 18.3503 92.326 16.6448 93.0593 15.2003C93.8038 13.7559 94.8371 12.6392 96.1593 11.8503C97.4815 11.0614 99.0204 10.667 100.776 10.667C102.609 10.667 104.17 11.0948 105.459 11.9503C106.748 12.7948 107.709 14.0003 108.343 15.567C108.987 17.1337 109.243 18.9948 109.109 21.1503H105.626V19.8837C105.604 17.7948 105.204 16.2503 104.426 15.2503C103.659 14.2503 102.487 13.7503 100.909 13.7503C99.1649 13.7503 97.8538 14.3003 96.976 15.4003C96.0982 16.5003 95.6593 18.0892 95.6593 20.167C95.6593 22.1448 96.0982 23.6781 96.976 24.767C97.8538 25.8448 99.1204 26.3837 100.776 26.3837C101.865 26.3837 102.804 26.1392 103.593 25.6503C104.393 25.1503 105.015 24.4392 105.459 23.517L108.876 24.6003C108.176 26.2114 107.115 27.4614 105.693 28.3503C104.27 29.2281 102.687 29.667 100.943 29.667ZM94.526 21.1503V18.4337H107.376V21.1503H94.526ZM112.849 29.167V5.16699H122.282C123.804 5.16699 125.082 5.4781 126.115 6.10032C127.149 6.72254 127.926 7.5281 128.449 8.51699C128.971 9.49477 129.232 10.5281 129.232 11.617C129.232 12.9392 128.904 14.0725 128.249 15.017C127.604 15.9614 126.732 16.6059 125.632 16.9503L125.599 16.1337C127.132 16.5114 128.31 17.2503 129.132 18.3503C129.954 19.4392 130.365 20.7114 130.365 22.167C130.365 23.5781 130.082 24.8059 129.515 25.8503C128.96 26.8948 128.143 27.7114 127.065 28.3003C125.999 28.8781 124.704 29.167 123.182 29.167H112.849ZM116.382 25.8503H122.649C123.438 25.8503 124.143 25.7003 124.765 25.4003C125.399 25.1003 125.893 24.6725 126.249 24.117C126.615 23.5503 126.799 22.8781 126.799 22.1003C126.799 21.3781 126.638 20.7281 126.315 20.1503C126.004 19.5614 125.549 19.1003 124.949 18.767C124.36 18.4225 123.665 18.2503 122.865 18.2503H116.382V25.8503ZM116.382 14.967H122.232C122.876 14.967 123.454 14.8392 123.965 14.5837C124.488 14.317 124.899 13.9392 125.199 13.4503C125.51 12.9503 125.665 12.3503 125.665 11.6503C125.665 10.717 125.354 9.95032 124.732 9.35032C124.11 8.75032 123.276 8.45032 122.232 8.45032H116.382V14.967ZM141.665 29.667C139.876 29.667 138.304 29.2781 136.949 28.5003C135.604 27.7114 134.554 26.617 133.799 25.217C133.054 23.8059 132.682 22.1725 132.682 20.317C132.682 18.3503 133.049 16.6448 133.782 15.2003C134.526 13.7559 135.56 12.6392 136.882 11.8503C138.204 11.0614 139.743 10.667 141.499 10.667C143.332 10.667 144.893 11.0948 146.182 11.9503C147.471 12.7948 148.432 14.0003 149.065 15.567C149.71 17.1337 149.965 18.9948 149.832 21.1503H146.349V19.8837C146.326 17.7948 145.926 16.2503 145.149 15.2503C144.382 14.2503 143.21 13.7503 141.632 13.7503C139.888 13.7503 138.576 14.3003 137.699 15.4003C136.821 16.5003 136.382 18.0892 136.382 20.167C136.382 22.1448 136.821 23.6781 137.699 24.767C138.576 25.8448 139.843 26.3837 141.499 26.3837C142.588 26.3837 143.526 26.1392 144.315 25.6503C145.115 25.1503 145.738 24.4392 146.182 23.517L149.599 24.6003C148.899 26.2114 147.838 27.4614 146.415 28.3503C144.993 29.2281 143.41 29.667 141.665 29.667ZM135.249 21.1503V18.4337H148.099V21.1503H135.249ZM158.329 29.667C156.996 29.667 155.879 29.4225 154.979 28.9337C154.079 28.4337 153.396 27.7781 152.929 26.967C152.474 26.1448 152.246 25.2448 152.246 24.267C152.246 23.3559 152.407 22.5559 152.729 21.867C153.051 21.1781 153.529 20.5948 154.162 20.117C154.796 19.6281 155.574 19.2337 156.496 18.9337C157.296 18.7003 158.201 18.4948 159.212 18.317C160.224 18.1392 161.285 17.9725 162.396 17.817C163.518 17.6614 164.629 17.5059 165.729 17.3503L164.462 18.0503C164.485 16.6392 164.185 15.5948 163.562 14.917C162.951 14.2281 161.896 13.8837 160.396 13.8837C159.451 13.8837 158.585 14.1059 157.796 14.5503C157.007 14.9837 156.457 15.7059 156.146 16.717L152.896 15.717C153.34 14.1725 154.185 12.9448 155.429 12.0337C156.685 11.1225 158.351 10.667 160.429 10.667C162.04 10.667 163.44 10.9448 164.629 11.5003C165.829 12.0448 166.707 12.9114 167.262 14.1003C167.551 14.6892 167.729 15.3114 167.796 15.967C167.862 16.6225 167.896 17.3281 167.896 18.0837V29.167H164.812V25.0503L165.412 25.5837C164.668 26.9614 163.718 27.9892 162.562 28.667C161.418 29.3337 160.007 29.667 158.329 29.667ZM158.946 26.817C159.935 26.817 160.785 26.6448 161.496 26.3003C162.207 25.9448 162.779 25.4948 163.212 24.9503C163.646 24.4059 163.929 23.8392 164.062 23.2503C164.251 22.717 164.357 22.117 164.379 21.4503C164.412 20.7837 164.429 20.2503 164.429 19.8503L165.562 20.267C164.462 20.4337 163.462 20.5837 162.562 20.717C161.662 20.8503 160.846 20.9837 160.112 21.117C159.39 21.2392 158.746 21.3892 158.179 21.567C157.701 21.7337 157.274 21.9337 156.896 22.167C156.529 22.4003 156.235 22.6837 156.012 23.017C155.801 23.3503 155.696 23.7559 155.696 24.2337C155.696 24.7003 155.812 25.1337 156.046 25.5337C156.279 25.9225 156.635 26.2337 157.112 26.467C157.59 26.7003 158.201 26.817 158.946 26.817ZM172.224 29.167V11.167H175.324V15.5337L174.89 14.967C175.113 14.3892 175.401 13.8614 175.757 13.3837C176.113 12.8948 176.524 12.4948 176.99 12.1837C177.446 11.8503 177.951 11.5948 178.507 11.417C179.074 11.2281 179.651 11.117 180.24 11.0837C180.829 11.0392 181.396 11.067 181.94 11.167V14.4337C181.351 14.2781 180.696 14.2337 179.974 14.3003C179.263 14.367 178.607 14.5948 178.007 14.9837C177.44 15.3503 176.99 15.7948 176.657 16.317C176.335 16.8392 176.101 17.4225 175.957 18.067C175.813 18.7003 175.74 19.3725 175.74 20.0837V29.167H172.224Z" fill="#1C1E21"/>
<path d="M2 0C0.895637 0.000243231 0 0.895581 0 2V30C0 31.1044 0.895637 31.9998 2 32H19.1187C20.127 32 20.7699 30.9239 20.2804 30.0423C18.9648 27.6728 17.7083 25.5811 16.917 24.6768C14.6623 22.1 4.08154 24.5028 3.74685 16.0962C3.72487 15.5442 4.09608 15.0614 4.62019 14.8867L9.7823 13.1657C10.0841 13.0651 10.3394 12.86 10.5116 12.5925C10.9993 11.8346 12.0883 10.2358 13.084 9.42676C14.026 8.66138 15.5502 7.68769 18.3327 7.241C18.8892 7.15167 19.3312 6.73699 19.6023 6.24285C20.2531 5.05655 21.5433 4.33664 22.9033 4.53223C24.6799 4.78792 25.9026 6.50922 25.6338 8.37695C25.614 8.51463 25.659 8.65455 25.7626 8.74726C26.9469 9.806 28.199 11.2718 29.4383 12.9274C30.2334 13.9896 32 13.4517 32 12.1248V2C32 0.895431 31.1046 0 30 0H2Z" fill="#1C1E21"/>
<circle cx="1.66667" cy="1.66667" r="1.66667" transform="matrix(-1 0 0 1 17.8335 11.167)" fill="#1C1E21"/>
</svg>
