<svg width="96" height="96" viewBox="0 0 96 96" fill="none" xmlns="http://www.w3.org/2000/svg">
<rect width="96" height="96" rx="6" fill="white"/>
<path d="M6 0C2.68629 0 0 2.68629 0 6V90C0 93.3137 2.68629 96 6 96H57.357C60.3821 96 62.3107 92.7717 60.8422 90.127C56.8945 83.0179 53.1239 76.7423 50.75 74.0293C43.9855 66.2991 12.244 73.5082 11.2405 48.2878C11.1746 46.6317 12.2883 45.1832 13.8607 44.6591L29.3469 39.497C30.2523 39.1952 31.0187 38.5792 31.535 37.7765C32.9979 35.5021 36.2633 30.706 39.25 28.2793C42.0761 25.9831 46.6493 23.0629 54.9972 21.723C56.6667 21.455 57.9925 20.211 58.8058 18.7285C60.7584 15.1691 64.6295 13.0085 68.71 13.5957C74.0397 14.3628 77.7066 19.5268 76.9004 25.1299C76.8412 25.541 76.9769 25.9589 77.2865 26.2357C80.8406 29.4128 84.5978 33.8134 88.3162 38.7837C90.7007 41.9711 96 40.3578 96 36.3772V6C96 2.68629 93.3137 0 90 0H6Z" fill="#0284C7"/>
<circle cx="5" cy="5" r="5" transform="matrix(-1 0 0 1 53.5 33.5)" fill="#0284C7"/>
</svg>
