<svg xmlns="http://www.w3.org/2000/svg" viewBox="0 0 10 10" fill="none">
  <path fill="#fff" d="M0 0h10v10H0z" />
  <path fill="#E5E7EB"
    d="M2 10H1V9h1v1Zm2 0H3V9h1v1Zm2 0H5V9h1v1Zm2 0H7V9h1v1Zm2 0H9V9h1v1ZM1 9H0V8h1v1Zm2 0H2V8h1v1Zm2 0H4V8h1v1Zm2 0H6V8h1v1Zm2 0H8V8h1v1ZM2 8H1V7h1v1Zm2 0H3V7h1v1Zm2 0H5V7h1v1Zm2 0H7V7h1v1Zm2 0H9V7h1v1ZM1 7H0V6h1v1Zm2 0H2V6h1v1Zm2 0H4V6h1v1Zm2 0H6V6h1v1Zm2 0H8V6h1v1ZM2 6H1V5h1v1Zm2 0H3V5h1v1Zm2 0H5V5h1v1Zm2 0H7V5h1v1Zm2 0H9V5h1v1ZM1 5H0V4h1v1Zm2 0H2V4h1v1Zm2 0H4V4h1v1Zm2 0H6V4h1v1Zm2 0H8V4h1v1ZM2 4H1V3h1v1Zm2 0H3V3h1v1Zm2 0H5V3h1v1Zm2 0H7V3h1v1Zm2 0H9V3h1v1ZM1 3H0V2h1v1Zm2 0H2V2h1v1Zm2 0H4V2h1v1Zm2 0H6V2h1v1Zm2 0H8V2h1v1ZM2 2H1V1h1v1Zm2 0H3V1h1v1Zm2 0H5V1h1v1Zm2 0H7V1h1v1Zm2 0H9V1h1v1ZM1 1H0V0h1v1Zm2 0H2V0h1v1Zm2 0H4V0h1v1Zm2 0H6V0h1v1Zm2 0H8V0h1v1Z" />
</svg>